name processed_emg_signals
nRows=73
nColumns=7
 
endheader
time	RGLTMED	RRF	RADDLONG	RST	RTA	RGM
1.235	0.1541178120981638	0.2209870552715066	0.5639482135420177	0.117757460567987	0.0681490131692557	0.0672364150512895
1.236	0.1542910207860842	0.2202498578459724	0.5580572711159778	0.1189657620505169	0.0703945807019884	0.0658924699531669
1.237	0.1544665909985454	0.2194973898489513	0.5520768678133686	0.1201802403715339	0.0727281022863326	0.0645925986457779
1.238	0.1546442671628256	0.2187303347908893	0.5460128078568677	0.1213991230206747	0.0751493060570053	0.063336574779775
1.239	0.1548237953294551	0.2179493851624934	0.5398709314735428	0.1226206805086109	0.0776578587833769	0.0621241397508768
1.24	0.1550049236004574	0.2171552415321466	0.5336571068129311	0.1238432271614132	0.0802533657786313	0.0609550030534537
1.241	0.1551874025553128	0.2163486116412566	0.5273772219639393	0.1250651218450684	0.0829353708824162	0.0598288426920203
1.242	0.1553709856731643	0.2155302094989693	0.5210371770848238	0.1262847686217995	0.0857033565183347	0.0587453056483847
1.243	0.1555554297491632	0.2147007544770975	0.5146428766612614	0.1275006173403713	0.0885567438275739	0.0577040084023734
1.244	0.1557404953031797	0.2138609704061294	0.5082002219050393	0.1287111641617708	0.0914948928798412	0.0567045375040325
1.245	0.155925946978148	0.2130115846733413	0.5017151033053264	0.1299149520222024	0.0945171029627572	0.0557464501952393
1.246	0.156111553925839	0.2121533273238549	0.4951933933433222	0.13111057103459	0.0976226129505911	0.0548292750786859
1.247	0.1562970901775391	0.2112869301658549	0.4886409393798578	0.1322966588301263	0.1008106017531395	0.0539525128321534
1.248	0.1564823349976042	0.2104131258810841	0.482063556724395	0.1334719008406963	0.1040801888453466	0.0531156369658841
1.249	0.1566670732180672	0.2095326471416692	0.4754670218934035	0.1346350305235469	0.1074304348781117	0.0523180946208774
1.25	0.1568510955526312	0.2086462257351671	0.4688570660648907	0.1357848295285897	0.1108603423706707	0.051559307405774
1.2510000000000001	0.1570341988886455	0.2077545916992907	0.4622393687363694	0.1369201278092387	0.1143688564847987	0.0508386722699731
1.252	0.1572161865557002	0.2068584724691055	0.4556195515925554	0.138039803677064	0.1179548658808703	0.0501555624106032
1.2530000000000001	0.1573968685697181	0.2059585920394996	0.4490031725895663	0.1391427838005983	0.1216172036556748	0.0495093282108328
1.254	0.1575760618514235	0.2050556701460879	0.4423957202621115	0.1402280431486615	0.1253546483614923	0.0488992982070355
1.2550000000000001	0.1577535904185456	0.2041504214675171	0.4358026082592897	0.1412946048787697	0.1291659251057694	0.0483247800822546
1.256	0.1579292855509626	0.2032435548517983	0.4292291701155433	0.1423415401708785	0.1330497067303993	0.0477850616834922
1.2570000000000001	0.158102985928449	0.2023357725690273	0.4226806542617489	0.1433679680074062	0.1370046150694138	0.0472794120603333
1.258	0.1582745377403471	0.2014277695924709	0.4161622192819397	0.1443730549002971	0.1410292222836467	0.04680708252252
1.2590000000000001	0.1584437947676786	0.2005202329097072	0.4096789294201587	0.1453560145669612	0.1451220522708283	0.0463673077141086
1.26	0.1586106184380209	0.1996138408649224	0.4032357503411271	0.1463161075570361	0.1492815821492768	0.0459593067018049
1.2610000000000001	0.1587748778547498	0.1987092625330508	0.3968375451481726	0.1472526408326215	0.153506243813267	0.0455822840751672
1.262	0.158936449802117	0.1978071571262131	0.3904890706604089	0.1481649673047918	0.1577944255577558	0.0452354310562951
1.2630000000000001	0.1590952187283237	0.1969081734319595	0.3841949739501017	0.1490524853294777	0.1621444737699481	0.0449179266167728
1.264	0.1592510767081655	0.1960129492830634	0.3779597891401225	0.1499146381655005	0.1665546946846623	0.0446289385997672
1.2650000000000001	0.1594039233868365	0.195122111057761	0.3717879344600556	0.1507509133979547	0.1710233562001341	0.0443676248453325
1.266	0.1595536659059546	0.1942362732093102	0.3656837095585694	0.1515608423296082	0.1755486897503511	0.0441331343172387
1.2670000000000001	0.1597002188124385	0.1933560378234705	0.3596512930685279	0.1523439993427612	0.1801288922295929	0.0439246082297249
1.268	0.1598435039507031	0.1924819942017873	0.3536947404209392	0.1531000012337299	0.1847621279642718	0.0437411811728258
1.2690000000000001	0.159983450338011	0.1916147184688526	0.3478179819027231	0.1538285065223238	0.1894465307265935	0.043581982234944
1.27	0.1601199940231178	0.1907547732011202	0.3420248209530818	0.1545292147378961	0.1941802057840038	0.0434461361214403
1.2710000000000001	0.1602530779284477	0.1899027070751303	0.3363189326923397	0.1552018656841041	0.1989612319778638	0.0433327642679891
1.272	0.1603826516759487	0.1890590545333551	0.3307038626770609	0.1558462386838885	0.2037876638244434	0.0432409859474691
1.2730000000000001	0.1605086713976788	0.1882243354660294	0.3251830258749724	0.1564621518065026	0.2086575336310613	0.0431699193691407
1.274	0.1606310995314744	0.1873990549081662	0.3197597058532808	0.1570494610784776	0.2135688536200811	0.0431186827687786
1.2750000000000001	0.1607499046023177	0.1865837027507561	0.3144370541741523	0.1576080596810157	0.2185196180533421	0.0430863954884221
1.276	0.1608650609895335	0.1857787534658061	0.3092180899904239	0.1581378771360848	0.2235078053493576	0.0430721790442894
1.2770000000000001	0.1609765486800234	0.1849846658448651	0.3041056998346388	0.1586388784836937	0.2285313801854551	0.0430751581814898
1.278	0.1610843530078317	0.1842018827504001	0.2991026375934994	0.159111063452708	0.2335882955767353	0.0430944619141226
1.2790000000000001	0.1611884643806593	0.1834308308796297	0.2942115246593955	0.1595544656269627	0.2386764949234887	0.0431292245494802
1.28	0.1612888779943079	0.1826719205403593	0.2894348502504067	0.1599691516081919	0.2437939140185396	0.0431785866951606
1.281	0.1613855935364075	0.1819255454384115	0.2847749718898165	0.1603552201769053	0.24893848300594	0.043241696247822
1.282	0.1614786148808288	0.1811920824769432	0.2802341160361806	0.1607128014518522	0.2541081282825652	0.0433177093623312
1.283	0.1615679497742395	0.1804718915679162	0.2758143788548867	0.1610420560484994	0.2593007743343006	0.0434057913999476
1.284	0.1616536095165782	0.17976531545652	0.2715177271223276	0.1613431742366311	0.2645143454987397	0.0435051178541376
1.285	0.1617356086363808	0.179072679559322	0.2673459992536066	0.1616163750966491	0.2697467676465861	0.0436148752524823
1.286	0.1618139645626747	0.1783942918169805	0.2633009064446354	0.1618619056741246	0.2749959697743313	0.0437342620331929
1.287	0.1618886972944914	0.1777304425624861	0.2593840339201036	0.1620800401313762	0.2802598855015043	0.0438624893946766
1.288	0.1619598290697264	0.1770814044059709	0.2555968422782583	0.1622710788949317	0.2855364544667819	0.0439987821165744
1.289	0.162027384035071	0.1764474321372914	0.2519406689241722	0.162435347797136	0.2908236236186938	0.0441423793508394
1.29	0.1620913879188535	0.1758287626475772	0.2484167295832557	0.1625731972100839	0.2961193483982332	0.0442925353814331
1.291	0.1621518677083836	0.1752256148710648	0.245026119887666	0.1626850011695929	0.3014215938125765	0.0444485203514622
1.292	0.1622088513333811	0.1746381897484342	0.2417698170273898	0.1627711564869234	0.3067283354009259	0.0446096209565787
1.293	0.1622623673564418	0.1740666702123851	0.2386486814598261	0.162832081845504	0.3120375600951982	0.0447751411035579
1.294	0.1623124446714194	0.1735112211963905	0.2356634586705031	0.1628682168801879	0.317347266979588	0.0449444025330296
1.295	0.162359112209826	0.1729719896671218	0.2328147809792535	0.1628800212364351	0.322655467954065	0.0451167454053651
1.296	0.1624023986552528	0.1724491046808272	0.230103169385894	0.1628679736069999	0.3279601883074451	0.0452915288487406
1.297	0.1624423321653203	0.1719426774641166	0.2275290354493178	0.1628325707439568	0.3332594672055671	0.0454681314685614
1.298	0.1624789401003754	0.1714528015194732	0.225092683194164	0.1627743264441689	0.3385513580996361	0.0456459518173881
1.299	0.1625122487581189	0.1709795527560475	0.2227943110396096	0.1626937705070154	0.3438339290591339	0.045824408824682
1.3	0.1625422831134855	0.1705229896460278	0.2206340137452053	0.1625914476631536	0.3491052630335856	0.0460029421857119
1.301	0.162569066563101	0.1700831534070418	0.2186117843691169	0.1624679164741782	0.3543634580475454	0.0461810127090825
1.302	0.1625926206741853	0.1696600682103627	0.2167275162345304	0.1623237482025191	0.3596066273336226	0.0463581026225111
1.303	0.16261296493787	0.1692537414148549	0.2149810049002979	0.1621595256517136	0.3648328994088105	0.046533715836581
1.304	0.1626301165277205	0.1688641638257469	0.2133719501320817	0.1619758419766336	0.3700404180998252	0.0467073781663487
1.305	0.1626440900638509	0.1684913099772161	0.2118999578707111	0.1617732994639195	0.3752273425231985	0.0468786375107218
1.306	0.162654897383599	0.1681351384377458	0.210564542194883	0.1615525082826324	0.3803918470255971	0.0470470639895739
1.307	0.1626625473196373	0.1677955921364768	0.2093651272751227	0.1613140852061793	0.385532121089011	0.0472122500387313
